<svg width="64" height="64" viewBox="0 0 64 64" fill="none" xmlns="http://www.w3.org/2000/svg">
  <g clip-path="url(#clip0_2_64)">
    <rect width="64" height="64" rx="24" fill="#151624" />
    <path
      d="M21.9922 50.4L23.7922 45.52L1.99218 35.72V30L20.3922 21.64V27.08L9.35219 31.92C8.81885 32.16 8.25885 32.36 7.67219 32.52C7.08552 32.68 6.61885 32.7867 6.27219 32.84C6.61885 32.8933 7.08552 33 7.67219 33.16C8.25885 33.2933 8.81885 33.48 9.35219 33.72L25.5122 40.84L35.7922 12.8H41.9922L39.4722 19.6L61.9922 29.96V35.68L43.5922 44.04V38.6L54.6322 33.76C55.1655 33.52 55.7255 33.32 56.3122 33.16C56.8989 33 57.3655 32.8933 57.7122 32.84C57.3655 32.7867 56.8989 32.6933 56.3122 32.56C55.7255 32.4 55.1655 32.2 54.6322 31.96L37.7522 24.32L28.1922 50.4H21.9922Z"
      fill="url(#paint0_linear_2_64)" />
  </g>
  <defs>
    <linearGradient id="paint0_linear_2_64" x1="-4" y1="6.15622" x2="75.8741" y2="27.8428"
      gradientUnits="userSpaceOnUse">
      <stop stop-color="#06B6D4" />
      <stop offset="0.5" stop-color="#A855F7" />
      <stop offset="1" stop-color="#EC4899" />
    </linearGradient>
    <clipPath id="clip0_2_64">
      <rect width="64" height="64" fill="white" />
    </clipPath>
  </defs>
</svg>